<?xml version="1.0" encoding="UTF-8"?><svg xmlns="http://www.w3.org/2000/svg" viewBox="0 0 512 256"><defs><style>.e{fill:#a9abab;}.f{fill:#030327;stroke:#000;stroke-width:2px;}.f,.g{stroke-miterlimit:10;}.h{fill:#f9feff;}.g{fill:none;stroke:#fff;stroke-width:4px;}</style></defs><g id="a"/><g id="b"><rect id="c" class="f" x="-.01" y=".25" width="512.43" height="256"/><rect id="d" class="g" x="65.1" y="36.43" width="380.46" height="182.57" rx="15.32" ry="15.32"/><g><path class="h" d="M89.77,201.17v-16.45h4.27v1.76c.59-.74,1.13-1.24,1.63-1.5,.67-.35,1.4-.53,2.21-.53,1.59,0,2.83,.61,3.7,1.83s1.31,2.73,1.31,4.52c0,1.98-.48,3.5-1.42,4.54-.95,1.04-2.15,1.57-3.6,1.57-.7,0-1.34-.12-1.92-.36-.58-.24-1.1-.59-1.55-1.07v5.69h-4.61Zm4.58-10.46c0,.94,.2,1.64,.59,2.1,.4,.46,.9,.68,1.5,.68,.53,0,.98-.22,1.34-.66s.54-1.18,.54-2.23c0-.96-.19-1.67-.56-2.13-.37-.45-.83-.68-1.37-.68-.58,0-1.07,.23-1.46,.68-.39,.46-.58,1.2-.58,2.22Z"/><path class="e" d="M103.84,180.19h4.57v6.06c.62-.64,1.24-1.1,1.85-1.38,.61-.28,1.34-.42,2.18-.42,1.24,0,2.22,.38,2.93,1.13s1.07,1.92,1.07,3.48v7.57h-4.59v-6.55c0-.75-.14-1.28-.42-1.59-.28-.31-.67-.47-1.17-.47-.55,0-1,.21-1.35,.63-.34,.42-.52,1.17-.52,2.26v5.72h-4.57v-16.45Z"/><path class="e" d="M116.61,184.72h4.82l2.46,7.93,2.28-7.93h4.5l-4.73,12.73c-.54,1.45-1.09,2.43-1.65,2.94-.79,.72-2,1.08-3.62,1.08-.66,0-1.68-.09-3.05-.27l-.36-3.19c.66,.21,1.39,.31,2.2,.31,.54,0,.97-.12,1.31-.37,.33-.25,.61-.69,.85-1.33l-5-11.92Z"/><path class="e" d="M129.91,193.33l4.53-.43c.19,.54,.45,.92,.79,1.16,.34,.23,.79,.35,1.35,.35,.61,0,1.09-.13,1.42-.39,.26-.19,.39-.44,.39-.73,0-.33-.17-.58-.52-.76-.25-.13-.9-.28-1.96-.47-1.59-.28-2.69-.53-3.3-.77s-1.14-.63-1.56-1.19c-.42-.56-.63-1.2-.63-1.92,0-.78,.23-1.46,.68-2.03,.46-.57,1.08-.99,1.89-1.27,.8-.28,1.87-.42,3.22-.42,1.42,0,2.47,.11,3.15,.33,.68,.22,1.24,.55,1.69,1.01,.45,.46,.83,1.07,1.13,1.85l-4.33,.43c-.11-.38-.3-.66-.56-.84-.36-.24-.79-.36-1.3-.36s-.89,.09-1.13,.27-.35,.41-.35,.67c0,.29,.15,.51,.45,.66s.95,.28,1.95,.4c1.52,.17,2.65,.41,3.39,.72,.74,.31,1.31,.74,1.7,1.31,.39,.57,.59,1.19,.59,1.87s-.21,1.36-.62,2.01c-.42,.65-1.07,1.17-1.96,1.55s-2.11,.58-3.65,.58c-2.18,0-3.73-.31-4.65-.93-.92-.62-1.52-1.5-1.78-2.65Z"/><path class="e" d="M143.69,180.19h4.57v3.11h-4.57v-3.11Zm0,4.53h4.57v11.92h-4.57v-11.92Z"/><path class="e" d="M158.82,191.97l4.34,.49c-.24,.91-.63,1.69-1.18,2.35-.55,.66-1.24,1.18-2.09,1.54-.85,.37-1.93,.55-3.24,.55s-2.32-.12-3.16-.35c-.84-.24-1.57-.62-2.17-1.14-.61-.53-1.08-1.15-1.42-1.85-.34-.71-.52-1.65-.52-2.83s.21-2.25,.63-3.06c.31-.6,.73-1.13,1.26-1.61s1.08-.83,1.64-1.06c.89-.37,2.03-.55,3.42-.55,1.94,0,3.43,.35,4.45,1.04,1.02,.7,1.74,1.71,2.15,3.05l-4.3,.57c-.13-.51-.38-.89-.73-1.15-.36-.26-.83-.39-1.43-.39-.76,0-1.37,.27-1.83,.81-.47,.54-.7,1.36-.7,2.46,0,.98,.23,1.72,.7,2.23,.46,.51,1.05,.76,1.77,.76,.6,0,1.1-.15,1.51-.46,.41-.31,.71-.78,.91-1.41Z"/><path class="e" d="M163.21,193.33l4.53-.43c.19,.54,.45,.92,.79,1.16,.34,.23,.79,.35,1.35,.35,.61,0,1.09-.13,1.42-.39,.26-.19,.39-.44,.39-.73,0-.33-.17-.58-.52-.76-.25-.13-.9-.28-1.96-.47-1.59-.28-2.69-.53-3.3-.77s-1.14-.63-1.56-1.19c-.42-.56-.63-1.2-.63-1.92,0-.78,.23-1.46,.68-2.03,.46-.57,1.08-.99,1.89-1.27,.8-.28,1.87-.42,3.22-.42,1.42,0,2.47,.11,3.15,.33,.68,.22,1.24,.55,1.69,1.01,.45,.46,.83,1.07,1.13,1.85l-4.33,.43c-.11-.38-.3-.66-.56-.84-.36-.24-.79-.36-1.3-.36s-.89,.09-1.13,.27-.35,.41-.35,.67c0,.29,.15,.51,.45,.66s.95,.28,1.95,.4c1.52,.17,2.65,.41,3.39,.72,.74,.31,1.31,.74,1.7,1.31,.39,.57,.59,1.19,.59,1.87s-.21,1.36-.62,2.01c-.42,.65-1.07,1.17-1.96,1.55s-2.11,.58-3.65,.58c-2.18,0-3.73-.31-4.65-.93-.92-.62-1.52-1.5-1.78-2.65Z"/><path class="h" d="M196.47,191.82h-9.16c.08,.73,.28,1.28,.59,1.64,.44,.52,1.02,.77,1.73,.77,.45,0,.88-.11,1.28-.34,.25-.14,.51-.39,.8-.75l4.5,.42c-.69,1.2-1.52,2.06-2.49,2.58-.97,.52-2.37,.78-4.19,.78-1.58,0-2.82-.22-3.73-.67-.91-.44-1.65-1.15-2.25-2.12s-.89-2.11-.89-3.42c0-1.86,.6-3.37,1.79-4.52s2.84-1.73,4.94-1.73c1.71,0,3.05,.26,4.04,.77,.99,.52,1.74,1.26,2.26,2.24,.52,.98,.77,2.26,.77,3.83v.52Zm-4.65-2.19c-.09-.88-.33-1.51-.71-1.9-.39-.38-.89-.57-1.52-.57-.73,0-1.31,.29-1.74,.86-.28,.36-.45,.89-.53,1.6h4.5Z"/><path class="e" d="M197.32,184.72h4.25v1.94c.64-.79,1.28-1.36,1.93-1.7,.65-.34,1.44-.51,2.38-.51,1.26,0,2.25,.38,2.97,1.13,.71,.75,1.07,1.91,1.07,3.48v7.57h-4.59v-6.55c0-.75-.14-1.28-.42-1.59-.28-.31-.67-.47-1.17-.47-.55,0-1,.21-1.35,.63-.34,.42-.52,1.17-.52,2.26v5.72h-4.57v-11.92Z"/><path class="e" d="M219.7,184.72h4.28v11.78c.01,.75-.15,1.46-.47,2.14-.32,.68-.74,1.23-1.27,1.64s-1.2,.72-2.01,.91-1.74,.28-2.79,.28c-2.39,0-4.04-.36-4.93-1.08-.89-.72-1.34-1.68-1.34-2.88,0-.15,0-.35,.02-.61l4.43,.5c.11,.41,.28,.7,.52,.85,.34,.23,.76,.35,1.27,.35,.66,0,1.15-.18,1.48-.53,.33-.35,.49-.97,.49-1.84v-1.81c-.45,.53-.9,.92-1.35,1.16-.7,.37-1.46,.56-2.28,.56-1.59,0-2.88-.7-3.86-2.09-.7-.99-1.04-2.29-1.04-3.92,0-1.85,.45-3.27,1.35-4.24,.9-.97,2.07-1.46,3.52-1.46,.93,0,1.69,.16,2.29,.47,.6,.31,1.17,.83,1.69,1.56v-1.76Zm-4.3,5.78c0,.86,.18,1.5,.55,1.91,.37,.42,.85,.62,1.45,.62s1.05-.21,1.43-.65,.58-1.08,.58-1.95-.2-1.53-.61-1.99c-.4-.46-.9-.69-1.48-.69s-1.05,.21-1.4,.63c-.35,.42-.52,1.12-.52,2.1Z"/><path class="e" d="M225.67,180.19h4.57v3.11h-4.57v-3.11Zm0,4.53h4.57v11.92h-4.57v-11.92Z"/><path class="e" d="M231.91,184.72h4.25v1.94c.64-.79,1.28-1.36,1.93-1.7,.65-.34,1.44-.51,2.38-.51,1.26,0,2.25,.38,2.97,1.13,.71,.75,1.07,1.91,1.07,3.48v7.57h-4.59v-6.55c0-.75-.14-1.28-.42-1.59-.28-.31-.67-.47-1.17-.47-.55,0-1,.21-1.35,.63-.34,.42-.52,1.17-.52,2.26v5.72h-4.57v-11.92Z"/><path class="e" d="M259.23,191.82h-9.16c.08,.73,.28,1.28,.59,1.64,.44,.52,1.02,.77,1.73,.77,.45,0,.88-.11,1.28-.34,.25-.14,.51-.39,.8-.75l4.5,.42c-.69,1.2-1.52,2.06-2.49,2.58-.97,.52-2.37,.78-4.19,.78-1.58,0-2.82-.22-3.73-.67-.91-.44-1.65-1.15-2.25-2.12s-.89-2.11-.89-3.42c0-1.86,.6-3.37,1.79-4.52s2.84-1.73,4.94-1.73c1.71,0,3.05,.26,4.04,.77,.99,.52,1.74,1.26,2.26,2.24,.52,.98,.77,2.26,.77,3.83v.52Zm-4.65-2.19c-.09-.88-.33-1.51-.71-1.9-.39-.38-.89-.57-1.52-.57-.73,0-1.31,.29-1.74,.86-.28,.36-.45,.89-.53,1.6h4.5Z"/><path class="h" d="M279.74,191.82h-9.16c.08,.73,.28,1.28,.59,1.64,.44,.52,1.02,.77,1.73,.77,.45,0,.88-.11,1.28-.34,.25-.14,.51-.39,.8-.75l4.5,.42c-.69,1.2-1.52,2.06-2.49,2.58-.97,.52-2.37,.78-4.19,.78-1.58,0-2.82-.22-3.73-.67-.91-.44-1.65-1.15-2.25-2.12s-.89-2.11-.89-3.42c0-1.86,.6-3.37,1.79-4.52s2.84-1.73,4.94-1.73c1.71,0,3.05,.26,4.04,.77,.99,.52,1.74,1.26,2.26,2.24,.52,.98,.77,2.26,.77,3.83v.52Zm-4.65-2.19c-.09-.88-.33-1.51-.71-1.9-.39-.38-.89-.57-1.52-.57-.73,0-1.31,.29-1.74,.86-.28,.36-.45,.89-.53,1.6h4.5Z"/><path class="e" d="M278.65,184.72h4.75l2.31,7.55,2.4-7.55h4.61l-5.06,11.92h-4.05l-4.96-11.92Z"/><path class="e" d="M296.96,188.58l-4.37-.46c.16-.76,.4-1.36,.71-1.8s.76-.82,1.34-1.14c.42-.23,1-.41,1.73-.54,.73-.13,1.53-.19,2.38-.19,1.37,0,2.47,.08,3.3,.23,.83,.15,1.52,.47,2.08,.96,.39,.34,.7,.81,.92,1.43,.22,.62,.34,1.21,.34,1.77v5.26c0,.56,.04,1,.11,1.32,.07,.32,.23,.72,.47,1.22h-4.29c-.17-.31-.28-.54-.34-.7-.05-.16-.1-.41-.16-.76-.6,.58-1.19,.99-1.78,1.23-.81,.33-1.75,.49-2.82,.49-1.42,0-2.5-.33-3.24-.99-.74-.66-1.1-1.47-1.1-2.44,0-.9,.27-1.65,.8-2.23s1.51-1.02,2.94-1.3c1.71-.34,2.82-.58,3.33-.72,.51-.14,1.05-.32,1.62-.54,0-.56-.12-.95-.35-1.18-.23-.22-.64-.34-1.22-.34-.75,0-1.31,.12-1.68,.36-.29,.19-.53,.54-.71,1.05Zm3.96,2.4c-.63,.22-1.28,.42-1.96,.59-.93,.25-1.51,.49-1.76,.73-.25,.25-.38,.53-.38,.84,0,.36,.12,.65,.38,.88,.25,.23,.62,.34,1.1,.34s.98-.12,1.42-.37c.44-.25,.75-.55,.93-.9,.18-.36,.27-.82,.27-1.39v-.73Z"/><path class="e" d="M307.04,180.19h4.58v16.45h-4.58v-16.45Z"/><path class="e" d="M325.85,196.64h-4.26v-1.93c-.64,.79-1.28,1.36-1.92,1.69-.65,.34-1.44,.51-2.38,.51-1.26,0-2.24-.38-2.96-1.13s-1.07-1.91-1.07-3.47v-7.59h4.59v6.55c0,.75,.14,1.28,.42,1.59,.28,.31,.67,.47,1.17,.47,.55,0,.99-.21,1.34-.63,.35-.42,.52-1.17,.52-2.26v-5.73h4.57v11.92Z"/><path class="e" d="M331.54,188.58l-4.37-.46c.16-.76,.4-1.36,.71-1.8s.76-.82,1.34-1.14c.42-.23,1-.41,1.73-.54,.73-.13,1.53-.19,2.38-.19,1.37,0,2.47,.08,3.3,.23,.83,.15,1.52,.47,2.08,.96,.39,.34,.7,.81,.92,1.43,.22,.62,.34,1.21,.34,1.77v5.26c0,.56,.04,1,.11,1.32,.07,.32,.23,.72,.47,1.22h-4.29c-.17-.31-.28-.54-.34-.7-.05-.16-.1-.41-.16-.76-.6,.58-1.19,.99-1.78,1.23-.81,.33-1.75,.49-2.82,.49-1.42,0-2.5-.33-3.24-.99-.74-.66-1.1-1.47-1.1-2.44,0-.9,.27-1.65,.8-2.23s1.51-1.02,2.94-1.3c1.71-.34,2.82-.58,3.33-.72,.51-.14,1.05-.32,1.62-.54,0-.56-.12-.95-.35-1.18-.23-.22-.64-.34-1.22-.34-.75,0-1.31,.12-1.68,.36-.29,.19-.53,.54-.71,1.05Zm3.96,2.4c-.63,.22-1.28,.42-1.96,.59-.93,.25-1.51,.49-1.76,.73-.25,.25-.38,.53-.38,.84,0,.36,.12,.65,.38,.88,.25,.23,.62,.34,1.1,.34s.98-.12,1.42-.37c.44-.25,.75-.55,.93-.9,.18-.36,.27-.82,.27-1.39v-.73Z"/><path class="e" d="M346.58,180.19v4.53h2.51v3.34h-2.51v4.22c0,.51,.05,.84,.15,1.01,.15,.25,.41,.38,.79,.38,.34,0,.81-.1,1.41-.29l.34,3.15c-1.13,.25-2.18,.37-3.16,.37-1.14,0-1.98-.15-2.51-.44-.54-.29-.94-.73-1.19-1.33-.26-.59-.39-1.56-.39-2.89v-4.19h-1.68v-3.34h1.68v-2.19l4.58-2.35Z"/><path class="e" d="M350.2,180.19h4.57v3.11h-4.57v-3.11Zm0,4.53h4.57v11.92h-4.57v-11.92Z"/><path class="e" d="M355.89,190.72c0-1.82,.61-3.32,1.84-4.49,1.23-1.18,2.88-1.77,4.97-1.77,2.39,0,4.19,.69,5.41,2.08,.98,1.11,1.47,2.49,1.47,4.12,0,1.83-.61,3.33-1.82,4.51-1.22,1.17-2.9,1.76-5.04,1.76-1.92,0-3.46-.49-4.65-1.46-1.45-1.2-2.18-2.78-2.18-4.74Zm4.58-.01c0,1.06,.21,1.85,.65,2.36s.97,.76,1.62,.76,1.2-.25,1.62-.75c.42-.5,.63-1.31,.63-2.41,0-1.03-.21-1.8-.64-2.31s-.95-.76-1.58-.76c-.67,0-1.22,.26-1.65,.77-.43,.51-.65,1.29-.65,2.34Z"/><path class="e" d="M370.53,184.72h4.25v1.94c.64-.79,1.28-1.36,1.93-1.7,.65-.34,1.44-.51,2.38-.51,1.26,0,2.25,.38,2.97,1.13,.71,.75,1.07,1.91,1.07,3.48v7.57h-4.59v-6.55c0-.75-.14-1.28-.42-1.59-.28-.31-.67-.47-1.17-.47-.55,0-1,.21-1.35,.63-.34,.42-.52,1.17-.52,2.26v5.72h-4.57v-11.92Z"/><path class="h" d="M391.2,180.19h4.58v16.45h-4.58v-16.45Z"/><path class="e" d="M401.62,188.58l-4.37-.46c.16-.76,.4-1.36,.71-1.8s.76-.82,1.34-1.14c.42-.23,1-.41,1.73-.54,.73-.13,1.53-.19,2.38-.19,1.37,0,2.47,.08,3.3,.23,.83,.15,1.52,.47,2.08,.96,.39,.34,.7,.81,.92,1.43,.22,.62,.34,1.21,.34,1.77v5.26c0,.56,.04,1,.11,1.32,.07,.32,.23,.72,.47,1.22h-4.29c-.17-.31-.28-.54-.34-.7-.05-.16-.1-.41-.16-.76-.6,.58-1.19,.99-1.78,1.23-.81,.33-1.75,.49-2.82,.49-1.42,0-2.5-.33-3.24-.99-.74-.66-1.1-1.47-1.1-2.44,0-.9,.27-1.65,.8-2.23s1.51-1.02,2.94-1.3c1.71-.34,2.82-.58,3.33-.72,.51-.14,1.05-.32,1.62-.54,0-.56-.12-.95-.35-1.18-.23-.22-.64-.34-1.22-.34-.75,0-1.31,.12-1.68,.36-.29,.19-.53,.54-.71,1.05Zm3.96,2.4c-.63,.22-1.28,.42-1.96,.59-.93,.25-1.51,.49-1.76,.73-.25,.25-.38,.53-.38,.84,0,.36,.12,.65,.38,.88,.25,.23,.62,.34,1.1,.34s.98-.12,1.42-.37c.44-.25,.75-.55,.93-.9,.18-.36,.27-.82,.27-1.39v-.73Z"/><path class="e" d="M411.79,180.19h4.61v5.7c.46-.48,.97-.84,1.55-1.08,.58-.24,1.22-.36,1.92-.36,1.45,0,2.65,.52,3.6,1.57,.95,1.04,1.42,2.54,1.42,4.49,0,1.3-.22,2.45-.65,3.44-.43,.99-1.03,1.73-1.8,2.22-.77,.49-1.62,.74-2.55,.74-.8,0-1.53-.17-2.2-.52-.5-.27-1.05-.77-1.64-1.51v1.76h-4.27v-16.45Zm4.58,10.46c0,1.02,.19,1.77,.58,2.23s.87,.69,1.46,.69c.55,0,1-.23,1.37-.68,.37-.45,.56-1.21,.56-2.28,0-.94-.18-1.63-.54-2.08s-.8-.66-1.32-.66c-.62,0-1.13,.23-1.52,.69-.39,.46-.59,1.16-.59,2.09Z"/></g><g><path class="h" d="M117.63,164.9V76.25h23.04v9.49c3.18-3.99,6.11-6.69,8.77-8.1,3.59-1.89,7.56-2.84,11.91-2.84,8.59,0,15.23,3.29,19.92,9.86,4.7,6.57,7.04,14.69,7.04,24.37,0,10.68-2.56,18.84-7.68,24.46-5.12,5.62-11.59,8.44-19.41,8.44-3.79,0-7.25-.65-10.37-1.94-3.12-1.29-5.92-3.2-8.38-5.74v30.66h-24.85Zm24.67-56.36c0,5.08,1.07,8.85,3.21,11.31,2.14,2.46,4.84,3.69,8.1,3.69,2.86,0,5.26-1.18,7.2-3.54s2.9-6.36,2.9-12c0-5.2-1.01-9.02-3.02-11.46-2.02-2.44-4.47-3.66-7.38-3.66-3.14,0-5.77,1.23-7.86,3.69-2.1,2.46-3.14,6.45-3.14,11.97Z"/><path class="h" d="M269.55,114.46h-49.34c.44,3.95,1.51,6.89,3.2,8.83,2.38,2.78,5.48,4.17,9.31,4.17,2.42,0,4.72-.6,6.89-1.81,1.33-.77,2.76-2.12,4.29-4.05l24.25,2.24c-3.71,6.45-8.18,11.08-13.42,13.88-5.24,2.8-12.76,4.2-22.56,4.2-8.51,0-15.2-1.2-20.08-3.6-4.88-2.4-8.92-6.21-12.12-11.43-3.21-5.22-4.81-11.36-4.81-18.41,0-10.04,3.21-18.16,9.64-24.37,6.43-6.21,15.31-9.31,26.64-9.31,9.19,0,16.45,1.39,21.77,4.17,5.32,2.78,9.37,6.81,12.15,12.09,2.78,5.28,4.17,12.15,4.17,20.62v2.78Zm-25.03-11.79c-.48-4.76-1.76-8.16-3.84-10.22-2.08-2.06-4.81-3.08-8.19-3.08-3.91,0-7.04,1.55-9.37,4.66-1.49,1.94-2.44,4.82-2.84,8.65h24.25Z"/><path class="h" d="M350.29,114.46h-49.34c.44,3.95,1.51,6.89,3.2,8.83,2.38,2.78,5.48,4.17,9.31,4.17,2.42,0,4.72-.6,6.89-1.81,1.33-.77,2.76-2.12,4.29-4.05l24.25,2.24c-3.71,6.45-8.18,11.08-13.42,13.88-5.24,2.8-12.76,4.2-22.56,4.2-8.51,0-15.2-1.2-20.08-3.6-4.88-2.4-8.92-6.21-12.12-11.43-3.21-5.22-4.81-11.36-4.81-18.41,0-10.04,3.21-18.16,9.64-24.37,6.43-6.21,15.31-9.31,26.64-9.31,9.19,0,16.45,1.39,21.77,4.17,5.32,2.78,9.37,6.81,12.15,12.09,2.78,5.28,4.17,12.15,4.17,20.62v2.78Zm-25.03-11.79c-.48-4.76-1.76-8.16-3.84-10.22-2.08-2.06-4.81-3.08-8.19-3.08-3.91,0-7.04,1.55-9.37,4.66-1.49,1.94-2.44,4.82-2.84,8.65h24.25Z"/><path class="h" d="M360.59,51.82h24.67v88.65h-24.67V51.82Z"/></g></g></svg>